<?xml version="1.0" encoding="UTF-8" standalone="no"?>
<svg
   xmlns:dc="http://purl.org/dc/elements/1.1/"
   xmlns:cc="http://creativecommons.org/ns#"
   xmlns:rdf="http://www.w3.org/1999/02/22-rdf-syntax-ns#"
   xmlns:svg="http://www.w3.org/2000/svg"
   xmlns="http://www.w3.org/2000/svg"
   id="svg3"
   version="1.1"
   viewBox="0 0 2249.9983 2249.9982"
   height="3000"
   width="3000">
  <metadata
     id="metadata9">
    <rdf:RDF>
      <cc:Work
         rdf:about="">
        <dc:format>image/svg+xml</dc:format>
        <dc:type
           rdf:resource="http://purl.org/dc/dcmitype/StillImage" />
        <dc:title></dc:title>
      </cc:Work>
    </rdf:RDF>
  </metadata>
  <defs
     id="defs7" />
  <path
     id="path23"
     transform="scale(0.74999942)"
     d="M 2282.5293 300.79688 C 2282.5293 300.79688 2117.0221 350.01236 2016.9473 384.08594 C 1959.4715 403.65527 1879.1898 450.67773 1821.2168 487.18164 L 1524.957 2256.6367 C 1587.5436 2262.3727 1741.9279 2276.0275 1820.6465 2254.3477 C 1916.8724 2227.8458 2001.5508 2140.7695 2001.5508 2140.7695 L 1928.418 2258.1328 C 1928.418 2258.1328 2009.2477 2519.364 1862.9844 2515.5781 C 1716.7208 2511.7921 1805.25 2307.3516 1805.25 2307.3516 C 1805.25 2307.3516 1647.4392 2326.2816 1555.0625 2314.9238 C 1542.6065 2314.9478 1529.1555 2315.0937 1515.1367 2315.2832 L 1451.416 2695.8691 C 1563.7012 2700.9335 1737.998 2702.6109 1786.0039 2685.9453 C 1851.4374 2663.2296 2332.5668 2261.9198 2401.8496 2178.6289 C 2471.1321 2095.3379 2517.3215 2015.8336 2590.4531 2008.2617 L 2525.0195 1940.1133 L 2571.207 1913.6113 L 2498.0762 1834.1074 L 2598.1504 1807.6055 C 2482.6794 1754.6021 2417.2458 1569.0903 2401.8496 1519.873 C 2386.4533 1470.6554 2251.7371 902.76426 2270.9824 853.54688 C 2290.2276 804.32949 2359.51 739.96615 2374.9062 705.89258 C 2390.3024 671.819 2282.5293 300.79688 2282.5293 300.79688 z M 2015.0801 1527.1855 C 2093.7804 1527.691 2147.8145 1557.7324 2147.8145 1557.7324 C 2147.8145 1557.7324 2063.1348 1690.2413 2036.1914 1694.0273 C 2009.2481 1697.8132 1735.9663 1728.1016 1732.1172 1728.1016 C 1728.2683 1728.1016 1828.3433 1561.5192 1943.8145 1535.0176 C 1969.0737 1529.2202 1993.0439 1527.0439 2015.0801 1527.1855 z "
     style="fill:#000000;stroke:#000000;stroke-width:1.2724545;fill-opacity:0.42857143" />
  <path
     id="path21"
     transform="scale(0.74999942)"
     d="M 1497.3281 353.79883 C 1556.5892 425.06498 1581.1582 477.56836 1581.1582 477.56836 C 1311.7257 326.13027 1285.6299 429.51767 1070.084 410.58789 C 1185.555 490.09289 1185.5562 482.52062 1235.5938 505.23633 C 1034.1648 490.56021 894.19043 593.22467 794.65039 578.9043 C 932.2817 604.49178 950.76367 622.60156 950.76367 622.60156 C 950.76367 622.60156 746.76582 671.82095 538.91797 1076.918 C 638.99282 978.48321 700.57794 940.62305 739.06836 940.62305 C 669.78568 978.48245 481.18319 1391.1509 400.35352 1444.1543 C 527.37169 1410.0807 669.78516 1254.8574 669.78516 1254.8574 C 669.78516 1254.8574 535.06933 1508.5164 450.39062 1569.0918 C 596.65395 1527.4463 638.99219 1546.375 638.99219 1546.375 C 638.99219 1546.375 562.01225 1618.3078 500.42773 1641.0234 C 596.65354 1633.4516 627.44531 1656.168 627.44531 1656.168 C 627.44531 1656.168 600.50336 1728.1 623.59766 1781.1035 C 646.69185 1834.1068 715.97339 1993.1172 773.70898 1993.1172 C 792.95415 2095.3378 835.29393 2178.6281 881.48242 2246.7754 C 926.7817 2313.6105 1290.4615 2668.1155 1358.9121 2688.8828 L 1421.2832 2316.3711 C 1350.359 2316.5428 1287.4324 2313.9368 1281.7812 2299.7793 C 1353.9845 2267.4975 1400.9893 2254.4908 1432.3652 2250.1836 L 1724.7383 503.95703 C 1714.2279 490.43425 1700.798 474.43101 1685.9297 459.80664 C 1651.2885 425.73308 1555.0636 380.3005 1497.3281 353.79883 z M 986.81445 1570.8223 C 1034.9453 1570.9383 1089.571 1574.7704 1131.6699 1588.0215 C 1227.8957 1618.3091 1327.9688 1747.0312 1327.9688 1747.0312 C 1327.9688 1747.0312 1070.0841 1765.9602 1031.5938 1750.8164 C 993.10333 1735.6724 873.7832 1576.6621 873.7832 1576.6621 C 873.7832 1576.6621 924.93202 1570.6725 986.81445 1570.8223 z "
     style="fill:#000000;stroke:#000000;stroke-width:1.2724545;fill-opacity:0.42857143" />
  <path
     id="path19"
     d="m 595.98663,434.17779 c -2.32183,-0.43169 -4.63183,-0.8632 -7.04495,-1.30047 2.31793,0.52614 4.66589,0.95822 7.04495,1.30047 z"
     style="fill:#000000;stroke:#000000;stroke-width:0.95434016" />
</svg>
