<svg xmlns="http://www.w3.org/2000/svg" width="500" height="204.339" viewBox="0 0 132.292 54.065">
  <defs/>
  <g fill="#fff">
    <g aria-label="ミッドナイト" style="line-height:1.25" font-family="GD-NostalMachinesJA-OTF" font-size="96" font-weight="400" letter-spacing="-10.34" word-spacing="0">
      <path d="M24.583 6.932L3.943 5.254 5.083.997 25.71 2.724zM20.64 21.65L0 19.97l1.108-4.135 20.627 1.727zm2.19-8.173L2.19 11.797l.952-3.551 20.626 1.727zM34.525 21.6H28.2L39.034 5.497h6.324zm-6.637-8.368H24.8l2.073-7.735h3.089zm4.476 0h-3.09l2.073-7.735h3.09zM50.561 21.6l2.216-8.27 13.378.73 1.023-3.82-13.377-.73 2.15-8.026h-8.148L42.413 21.6zM64.273 3.746L66.784 0h-2.846l-2.511 3.746zm3.867 0L70.676 0h-2.87l-2.512 3.746z" style="-inkscape-font-specification:'GD-NostalMachinesJA-OTF, Normal';font-variant-ligatures:normal;font-variant-caps:normal;font-variant-numeric:normal;font-feature-settings:normal;text-align:start"/>
      <path d="M74.869 21.6l7.847-11.676h6.86l.873-3.26h-5.522l3.48-5.18H79.31l-3.48 5.18h-8.173l-.873 3.26h6.835L67.92 18.39H65l-.86 3.211zM104.503 21.6l3.624-13.524h-3.868l10.134-6.592h-6.665L86.52 15.276h6.69l3.802-2.481-2.36 8.805z" style="-inkscape-font-specification:'GD-NostalMachinesJA-OTF, Normal';font-variant-ligatures:normal;font-variant-caps:normal;font-variant-numeric:normal;font-feature-settings:normal;text-align:start"/>
      <path d="M115.675 21.6l2.216-8.27 13.377.73 1.024-3.82-13.378-.73 2.151-8.026h-8.149l-5.39 20.116z" style="-inkscape-font-specification:'GD-NostalMachinesJA-OTF, Normal';font-variant-ligatures:normal;font-variant-caps:normal;font-variant-numeric:normal;font-feature-settings:normal;text-align:start"/>
    </g>
    <g aria-label="モンスター" style="line-height:1.25" font-family="GD-NostalMachinesJA-OTF" font-size="96" font-weight="400" letter-spacing="0" word-spacing="0">
      <path d="M7.986 40.832l-.873 3.26h4.33L8.77 54.065h17.708l.86-3.211H16.905l1.811-6.762h10.898l.873-3.26H19.59l.977-3.648h10.192l.867-3.235H10.536l-.867 3.235h3.624l-.977 3.648zM43.797 54.065l13.54-20.116h-9.098l-11.39 16.905h-7.418l-.86 3.21zm-9.666-20.116l-.867 3.235h8.148l.867-3.235zM63.233 54.065l5.952-7.42 2.537 7.42h4.062l-3.756-10.946 7.37-9.17h-20.7l-.867 3.235h8.611L52.87 54.064zM92.276 54.065l4.98-7.42 3.097.244.873-3.26-1.834-.145 6.423-9.535H86.039l-6.598 9.827h4.451l4.467-6.592h5.667l-3.768 5.619-3.455-.268-.873 3.26 2.216.17-5.454 8.1zM105.284 40.832l-.874 3.26h22.5l.874-3.26z" style="-inkscape-font-specification:'GD-NostalMachinesJA-OTF, Normal';font-variant-ligatures:normal;font-variant-caps:normal;font-variant-numeric:normal;font-feature-settings:normal;text-align:start"/>
    </g>
    <path d="M66.146 22.315a5.292 5.292 0 00-5.292 5.292 5.292 5.292 0 005.292 5.291 5.292 5.292 0 005.291-5.291 5.292 5.292 0 00-5.291-5.292zm-1.323 1.323h2.646v1.677l1.452-.838 1.323 2.29-1.452.84 1.452.838-1.323 2.292-1.452-.84v1.678h-2.646v-1.677l-1.453.839-1.323-2.292 1.453-.838-1.453-.84 1.323-2.29 1.453.838z"/>
  </g>
</svg>
